<svg width="800" height="800" viewBox="0 0 800 800" fill="none" xmlns="http://www.w3.org/2000/svg">
<rect width="800" height="800" fill="#E5E5E5"/>
<g clip-path="url(#clip0_0_1)">
<path d="M400 800C620.914 800 800 620.914 800 400C800 179.086 620.914 0 400 0C179.086 0 0 179.086 0 400C0 620.914 179.086 800 400 800Z" fill="#FFD630"/>
<path d="M792.273 479.845C755.184 662.459 593.689 800 400.258 800C362.395 800 325.564 794.848 290.792 784.803L105.344 599.356L124.145 570.252L115.131 564.07L229.491 513.072L178.234 461.816V432.453H304.7L267.095 395.878L293.625 348.744L282.808 338.956L383.775 264.263L432.713 313.2L516.678 204.25L792.533 480.105L792.273 479.845Z" fill="#F5BE18"/>
<path d="M292.595 200.386H507.406C514.361 200.386 519.769 206.052 519.769 212.748V331.486C519.769 338.441 514.103 343.848 507.406 343.848H292.595C285.641 343.848 280.233 338.183 280.233 331.486V212.75C280.231 205.795 285.898 200.386 292.595 200.386Z" fill="#E84F4F"/>
<path d="M334.578 344.108H350.289V348.744H334.578V344.108ZM449.969 344.108H465.68V348.744H449.969V344.108Z" fill="#C94545"/>
<path d="M516.42 203.992C518.738 206.309 520.027 209.4 520.027 212.748V331.486C520.027 338.441 514.361 343.848 507.664 343.848H292.853C288.733 343.848 284.869 341.788 282.808 338.697L516.677 203.989H516.42V203.992Z" fill="#C94545"/>
<path d="M291.822 209.917H508.178V334.837H291.822V209.917Z" fill="#E6E6E6"/>
<path d="M279.203 348.744H400.517H520.8C523.891 348.744 542.178 375.531 545.269 379.394C547.33 381.711 546.041 383.514 542.952 383.514L399.745 383.256L256.539 383.514C253.448 383.514 252.159 381.711 254.222 379.394C257.312 375.787 275.6 348.744 278.691 348.744H279.203Z" fill="#E84F4F"/>
<path d="M266.839 396.137C263.748 396.137 254.477 387.637 253.961 383.516L253.703 381.712C350.291 381.712 449.969 381.712 546.556 381.712L546.298 383.516C545.784 387.636 537.542 396.137 534.45 396.137C445.073 396.394 356.214 396.394 266.839 396.137Z" fill="#C94545"/>
<path d="M377.077 369.608H389.698H413.652H426.273L430.394 379.911H413.652H389.698H372.956L377.077 369.608Z" fill="#EBECEC"/>
<path d="M121.314 478.816H253.961C258.081 478.816 261.689 482.164 261.689 486.544V559.692C261.689 563.813 258.341 567.42 253.961 567.42H121.314C117.194 567.42 113.586 564.072 113.586 559.692V486.544C113.586 482.42 116.934 478.816 121.314 478.816Z" fill="#E84F4F"/>
<path d="M259.111 481.134C260.398 482.422 261.428 484.483 261.428 486.542V559.691C261.428 563.811 258.08 567.419 253.7 567.419H121.056C118.48 567.419 116.163 566.131 114.873 564.07L259.111 480.877V481.134Z" fill="#C94545"/>
<path d="M120.798 484.739H254.219V561.752H120.798V484.739Z" fill="#E6E6E6"/>
<path d="M112.814 570.508H186.994H187.508H261.687C263.491 570.508 274.823 586.992 276.884 589.309C278.172 590.855 277.398 591.886 275.339 591.886L186.994 591.628L98.6484 591.886C96.8453 591.886 96.0719 590.855 97.1031 589.309C98.9062 586.992 110.239 570.508 112.3 570.508H112.814Z" fill="#E84F4F"/>
<path d="M105.344 599.614C103.541 599.614 97.6156 594.462 97.3594 591.886L97.1016 590.855C156.6 590.855 218.158 590.855 277.655 590.855V591.886C277.397 594.462 272.247 599.614 270.186 599.614C215.067 599.872 160.205 599.872 105.086 599.614H105.344Z" fill="#C94545"/>
<path d="M173.342 583.388H181.327H196.266H204.25L206.827 589.827H196.523H181.584H171.281L173.858 583.388H173.342Z" fill="#EBECEC"/>
<path d="M147.07 567.677H156.858V570.511H147.07V567.677ZM218.159 567.677H227.947V570.511H218.159V567.677Z" fill="#C94545"/>
<path d="M333.805 478.816H466.452C470.572 478.816 474.18 482.164 474.18 486.544V559.692C474.18 563.813 470.831 567.42 466.452 567.42H333.805C329.684 567.42 326.077 564.072 326.077 559.692V486.544C326.08 482.42 329.428 478.816 333.805 478.816Z" fill="#E84F4F"/>
<path d="M471.861 481.134C473.148 482.422 474.178 484.483 474.178 486.542V559.691C474.178 563.811 470.83 567.419 466.45 567.419H333.803C331.227 567.419 328.909 566.131 327.622 564.07L471.859 480.877V481.134H471.861Z" fill="#C94545"/>
<path d="M333.291 484.739H466.709V561.752H333.291V484.739Z" fill="#E6E6E6"/>
<path d="M325.563 570.508H399.742H400.256H474.436C476.239 570.508 487.572 586.992 489.633 589.309C490.92 590.855 490.147 591.886 488.088 591.886L399.742 591.628L311.397 591.886C309.594 591.886 308.82 590.855 309.852 589.309C311.655 586.992 322.988 570.508 325.048 570.508H325.563Z" fill="#E84F4F"/>
<path d="M317.838 599.614C316.034 599.614 310.109 594.462 309.853 591.886L309.595 590.855C369.094 590.855 430.652 590.855 490.148 590.855V591.886C489.891 594.462 484.741 599.614 482.68 599.614C427.561 599.872 372.698 599.872 317.58 599.614H317.838Z" fill="#C94545"/>
<path d="M385.834 583.388H393.819H408.758H416.742L419.319 589.827H409.016H394.077H383.773L386.35 583.388H385.834Z" fill="#EBECEC"/>
<path d="M359.562 567.677H369.35V570.511H359.562V567.677ZM430.65 567.677H440.438V570.511H430.65V567.677Z" fill="#C94545"/>
<path d="M572.311 567.677H582.098V570.511H572.311V567.677ZM643.4 567.677H653.188V570.511H643.4V567.677Z" fill="#C94545"/>
<path d="M546.298 478.816H678.945C683.066 478.816 686.673 482.164 686.673 486.544V559.692C686.673 563.813 683.325 567.42 678.945 567.42H546.298C542.178 567.42 538.57 564.072 538.57 559.692V486.544C538.57 482.42 541.919 478.816 546.298 478.816Z" fill="#E84F4F"/>
<path d="M684.353 481.134C685.641 482.422 686.67 484.483 686.67 486.542V559.691C686.67 563.811 683.322 567.419 678.942 567.419H546.297C543.72 567.419 541.403 566.131 540.114 564.07L684.352 480.877V481.134H684.353Z" fill="#C94545"/>
<path d="M546.041 484.739H679.459V561.752H546.041V484.739Z" fill="#E6E6E6"/>
<path d="M538.056 570.508H612.234H612.748H686.927C688.73 570.508 700.063 586.992 702.123 589.309C703.411 590.855 702.637 591.886 700.578 591.886L612.233 591.628L523.887 591.886C522.084 591.886 521.311 590.855 522.342 589.309C524.145 586.992 535.478 570.508 537.539 570.508H538.056Z" fill="#E84F4F"/>
<path d="M530.328 599.614C528.525 599.614 522.6 594.462 522.344 591.886L522.086 590.855C581.584 590.855 643.142 590.855 702.639 590.855V591.886C702.381 594.462 697.231 599.614 695.17 599.614C640.052 599.872 585.189 599.872 530.07 599.614H530.328Z" fill="#C94545"/>
<path d="M598.327 583.388H606.311H621.25H629.234L631.811 589.827H621.509H606.57H596.269L598.845 583.388H598.327Z" fill="#EBECEC"/>
</g>
<defs>
<clipPath id="clip0_0_1">
<rect width="800" height="800" fill="white"/>
</clipPath>
</defs>
</svg>
